<?xml version="1.0" encoding="UTF-8"?>

<svg
  xmlns="http://www.w3.org/2000/svg"
  viewBox="0 0 24 24" width="24" height="24">
  
  <path
    d="M 10.65296,0.42622696 C 5.1217543,1.027445 0.67274088,5.4764583 0.07152288,10.88742 -0.52969512,16.53887 2.7168822,21.589101 7.64687,23.512999 8.0076007,23.633242 8.3683317,23.392755 8.3683317,22.911781 v -1.923898 c 0,0 -0.4809745,0.120243 -1.0821926,0.120243 -1.6834104,0 -2.404872,-1.442923 -2.5251156,-2.284628 C 4.6407799,18.342524 4.4002927,17.981793 4.0395618,17.621062 3.678831,17.500818 3.5585874,17.500818 3.5585874,17.380575 c 0,-0.240487 0.3607308,-0.240487 0.4809744,-0.240487 0.7214617,0 1.3226797,0.841705 1.5631669,1.202436 0.601218,0.961948 1.3226796,1.202436 1.6834104,1.202436 0.4809745,0 0.8417056,-0.120244 1.0821926,-0.240488 0.120243,-0.841705 0.480974,-1.68341 1.202436,-2.164384 -2.765603,-0.601218 -4.8097442,-2.164385 -4.8097442,-4.809745 0,-1.322679 0.601218,-2.645359 1.4429232,-3.6073077 C 6.0837031,8.4825483 5.9634595,7.8813304 5.9634595,7.0396252 c 0,-0.4809745 0,-1.2024361 0.3607308,-1.9238977 0,0 1.6834104,0 3.3668214,1.5631669 C 10.29223,6.4384071 11.133935,6.3181635 11.97564,6.3181635 c 0.841705,0 1.68341,0.1202436 2.404872,0.3607309 1.563167,-1.5631669 3.366821,-1.5631669 3.366821,-1.5631669 0.240487,0.7214616 0.240487,1.4429232 0.240487,1.9238977 0,0.9619488 -0.120243,1.4429231 -0.240487,1.6834101 0.841705,0.9619487 1.442923,2.1643847 1.442923,3.6073077 0,2.64536 -2.044141,4.208527 -4.809744,4.809745 0.721462,0.601218 1.202436,1.68341 1.202436,2.765602 v 3.126334 c 0,0.360731 0.360731,0.721462 0.841705,0.601218 C 20.873667,21.829588 24,17.500818 24,12.450587 24,5.2359711 17.867577,-0.41547834 10.65296,0.42622696 Z"
    style="fill: #ffffff" />
</svg>