<?xml version="1.0" encoding="UTF-8"?>

<svg
  xmlns="http://www.w3.org/2000/svg"
  viewBox="0 0 24 24" width="24" height="24">

  <g transform="translate(0,-1.6877847)">
    <path d="M 10.65296,2.1140117 C 5.1217543,2.7152297 0.67274089,7.164243 0.07152288,12.575205 -0.52969512,18.226655 2.7168822,23.276886 7.64687,25.200785 8.0076007,25.321027 8.3683318,25.08054 8.3683318,24.599566 v -1.923898 c 0,0 -0.4809745,0.120243 -1.0821927,0.120243 -1.6834104,0 -2.404872,-1.442923 -2.5251156,-2.284628 C 4.6407799,20.030309 4.4002928,19.669578 4.0395618,19.308847 3.678831,19.188603 3.5585874,19.188603 3.5585874,19.06836 c 0,-0.240487 0.3607308,-0.240487 0.4809744,-0.240487 0.7214617,0 1.3226797,0.841705 1.5631669,1.202436 0.601218,0.961948 1.3226796,1.202436 1.6834104,1.202436 0.4809745,0 0.8417057,-0.120244 1.0821927,-0.240488 0.1202429,-0.841705 0.4809739,-1.68341 1.2024359,-2.164384 -2.7656029,-0.601218 -4.8097442,-2.164385 -4.8097442,-4.809744 0,-1.32268 0.601218,-2.64536 1.4429232,-3.607309 C 6.0837031,10.170333 5.9634595,9.5691151 5.9634595,8.7274099 c 0,-0.4809745 0,-1.0821925 0.2404872,-1.5631669 0,-0.2404872 0.2404872,-0.3607308 0.3607309,-0.3607308 0,0 0.1202435,0 0.1202435,0 0.601218,0.1202436 1.8036536,0.4809745 2.8858466,1.563167 0.7214623,-0.2404874 1.5631673,-0.360731 2.4048723,-0.360731 0.841705,0 1.68341,0.1202436 2.404872,0.360731 1.082192,-1.0821925 2.404872,-1.4429234 3.00609,-1.563167 0,0 0.120244,0 0.120244,0 0.240487,0 0.360731,0.1202436 0.480975,0.3607308 0,0.4809744 0,1.0821924 0,1.5631669 0,0.9619489 -0.120244,1.4429231 -0.240488,1.6834101 0.841705,0.961949 1.442923,2.164385 1.442923,3.607309 0,2.645359 -2.044141,4.208526 -4.809744,4.809744 0.721462,0.601218 1.202436,1.68341 1.202436,2.765602 v 3.126334 c 0,0.360731 0.360732,0.721462 0.841705,0.601218 C 20.873667,23.517374 24,19.188603 24,14.138372 24,6.9237558 17.867577,1.2723064 10.65296,2.1140117 Z" />
  </g>
</svg>