<?xml version="1.0" encoding="UTF-8"?>

<svg
  xmlns="http://www.w3.org/2000/svg"
  viewBox="0 0 24 24" width="24" height="24">

  <path d="M 6.6666667,0 C 2.9853333,0 0,2.9853333 0,6.6666667 V 17.333333 C 0,21.014667 2.9853333,24 6.6666667,24 H 17.333333 C 21.014667,24 24,21.014667 24,17.333333 V 6.6666667 C 24,2.9853333 21.014667,0 17.333333,0 Z M 20,2.6666667 C 20.736,2.6666667 21.333333,3.264 21.333333,4 21.333333,4.736 20.736,5.3333333 20,5.3333333 19.264,5.3333333 18.666667,4.736 18.666667,4 18.666667,3.264 19.264,2.6666667 20,2.6666667 Z m -8,2.6666666 c 3.681333,0 6.666667,2.9853337 6.666667,6.6666667 0,3.681333 -2.985334,6.666667 -6.666667,6.666667 C 8.318667,18.666667 5.3333333,15.681333 5.3333333,12 5.3333333,8.318667 8.318667,5.3333333 12,5.3333333 Z M 12,8 a 4,4 0 0 0 -4,4 4,4 0 0 0 4,4 4,4 0 0 0 4,-4 4,4 0 0 0 -4,-4 z" />
</svg>