<?xml version="1.0" encoding="UTF-8"?>

<svg
  xmlns="http://www.w3.org/2000/svg"
  viewBox="0 0 24 24" width="24" height="24">
  
  <path
    d="M 6.6666667,0 C 2.9906667,0 0,2.9906667 0,6.6666667 V 17.333333 C 0,21.009333 2.9906667,24 6.6666667,24 H 17.333333 C 21.009333,24 24,21.009333 24,17.333333 V 6.6666667 C 24,2.9906667 21.009333,0 17.333333,0 Z m 0,2.6666667 H 17.333333 c 2.205334,0 4,1.7946666 4,4 V 17.333333 c 0,2.205334 -1.794666,4 -4,4 H 6.6666667 c -2.2053334,0 -4,-1.794666 -4,-4 V 6.6666667 c 0,-2.2053334 1.7946666,-4 4,-4 z M 18.666667,4 A 1.3333333,1.3333333 0 0 0 17.333333,5.3333333 1.3333333,1.3333333 0 0 0 18.666667,6.6666667 1.3333333,1.3333333 0 0 0 20,5.3333333 1.3333333,1.3333333 0 0 0 18.666667,4 Z M 12,5.3333333 C 8.324,5.3333333 5.3333333,8.324 5.3333333,12 5.3333333,15.676 8.324,18.666667 12,18.666667 15.676,18.666667 18.666667,15.676 18.666667,12 18.666667,8.324 15.676,5.3333333 12,5.3333333 Z M 12,8 c 2.205333,0 4,1.794667 4,4 0,2.205333 -1.794667,4 -4,4 C 9.794667,16 8,14.205333 8,12 8,9.794667 9.794667,8 12,8 Z"
    style="fill: #ffffff" />
</svg>